<?xml version="1.0" encoding="utf-8"?>
<!-- Generator: Adobe Illustrator 15.1.0, SVG Export Plug-In . SVG Version: 6.00 Build 0)  -->
<!DOCTYPE svg PUBLIC "-//W3C//DTD SVG 1.1//EN" "http://www.w3.org/Graphics/SVG/1.1/DTD/svg11.dtd">
<svg version="1.1" id="Layer_1" xmlns="http://www.w3.org/2000/svg" xmlns:xlink="http://www.w3.org/1999/xlink" x="0px" y="0px"
	 width="70px" height="63.106px" viewBox="0 0 70 63.106" enable-background="new 0 0 70 63.106" xml:space="preserve">
<g id="mr._x">
	<path fill="#FFFFFF" d="M34.578,42.287l-0.135-0.041c-0.036-0.014-0.077-0.027-0.118-0.044c-0.123-0.047-0.26-0.1-0.388-0.1
		c-0.155,0-0.272,0.08-0.32,0.199c-0.007,0.013-0.172,0.344,0.343,0.65c0.298,0.18,0.671,0.232,0.78,0.244h0.036
		c0.194,0,0.331-0.155,0.381-0.311c0.053-0.162,0.016-0.318-0.104-0.406C34.917,42.388,34.745,42.335,34.578,42.287z"/>
	<path fill="#FFFFFF" d="M35.829,40.577c-0.059-0.17-0.198-0.394-0.722-0.394c-0.2,0-0.45,0.032-0.742,0.099
		c-0.101,0.021-0.189,0.004-0.203-0.016c-0.001-0.003-0.041-0.076,0.083-0.312c0.35-0.668,0.611-1.119,0.609-1.119
		c0.017-0.023,0.335-0.533,0.08-0.902c-0.152-0.219,0.057-0.658,0.148-0.787c0.122-0.17,0.396-0.617,0.28-1.072l-0.013-0.049
		c-0.138-0.553-0.196-0.845-0.812-0.812c-0.143,0.006-0.292,0.014-0.437,0.014c-0.561,0-0.665-0.111-0.675-0.18
		c-0.025-0.146,0.111-0.254,0.367-0.396l0.04-0.025c0.08-0.043,0.206-0.109,0.206-0.265c0-0.163-0.15-0.261-0.269-0.294
		l-2.158-0.699c-0.219-0.084-0.398,0.074-0.428,0.146l-0.44,0.738c-0.008,0.012-0.108,0.131-0.267,0.076
		c0,0-0.816-0.291-0.972-0.344c-0.071-0.023-0.146-0.035-0.215-0.035c-0.113,0-0.491,0.043-0.529,0.596
		c-0.025,0.293,0.065,0.65,0.239,1.363c0.106,0.42,0.239,0.966,0.396,1.689c0.15,0.687,0.206,0.944,0.568,1.365
		c0.031,0.035,0.292,0.311,0.629,0.311c0.058,0,0.113-0.007,0.164-0.023c0.331-0.098,0.318-0.533,0.308-0.791v-0.049
		c-0.025-0.771-0.08-1.088-0.123-1.322c-0.023-0.139-0.039-0.236-0.043-0.389c-0.001-0.053,0.013-0.174,0.055-0.217l0.05-0.014
		c0.048,0.004,0.193,0.043,0.442,0.334c0.293,0.344,0.506,0.593,0.836,1.273c0.231,0.484,0.26,0.945,0.088,1.375
		c-0.366,0.91-0.473,1.608-0.473,1.622c-0.008,0.019-0.11,0.438,0.149,0.791c0.078,0.106,0.279,0.288,0.533,0.288
		c0.062,0,0.126-0.01,0.185-0.031c0.387-0.134,0.72-0.645,0.761-0.709c0.038-0.062,0.15-0.204,0.246-0.204
		c0.018,0,0.032,0.002,0.046,0.001c0.001,0.01,0.001,0.04,0.001,0.062c0,0.078,0.002,0.209,0.112,0.303
		c0.146,0.127,0.354,0.104,0.67,0.027c0.129-0.031,0.283-0.068,0.461-0.096c0.115-0.018,0.227-0.023,0.327-0.031
		c0.235-0.014,0.423-0.027,0.521-0.15c0.129-0.139,0.043-0.391-0.054-0.656L35.829,40.577z"/>
	<path fill="#FFFFFF" d="M37.578,35.839c-0.04-0.15-0.131-0.205-0.222-0.205c-0.362,0-1.771,1.732-1.172,2.014
		c0.244,0.115,0.643,0.256,0.533,0.456c-0.055,0.096-0.182,0.137-0.328,0.081c0,0-0.674-0.285-0.822,0.506
		c-0.181,0.932,0.495,0.504,1.29,0.658c0.437,0.082,0.47,0.078,0.756,0.166c0.398,0.152,0.848-0.017,0.654-0.685
		C38.229,38.685,37.78,36.575,37.578,35.839z"/>
	<path fill="#FFFFFF" d="M9.445,48.89L2.114,59.924L0,63.106h3.821h23.234h1.1l0.608-0.916l6.237-9.408l6.236,9.408l0.609,0.916
		h1.098h23.236H70l-2.109-3.181L49.073,31.554L67.891,3.181L70,0h-3.819H42.947h-1.1l-0.61,0.916l-6.236,9.409l-6.237-9.409
		L28.155,0h-1.1H3.892h-3.82l2.111,3.181l18.799,28.347l-9.87,14.854L9.445,48.89z M42.947,61.059h-0.003l-7.943-11.983
		l-7.945,11.983H3.821L18.664,38.72l-0.048,0.088l5.5,8.306h9.676l-6.144-9.249l-4.207-6.336l0.001-0.001l-1.955-2.952l23.179,7.348
		c0,0,0.333,0.102,0.408-0.15c0.071-0.232-0.075-0.355-0.226-0.442l-6.016-3.765l-19.478-6.199L3.892,2.048h23.164l7.945,11.986
		l7.943-11.986h0.003h23.233L46.616,31.554l19.564,29.505H42.947z"/>
	<path fill="#FFFFFF" d="M37.853,19.552c-2.001-0.999-4.291-1.553-6.207-1.936c-3.682-0.736-6.63-0.713-8.036,0
		c-0.194,0.1-0.439,0.363-0.511,0.662l-1.364,4.417c-0.138,0.392,0.154,0.487,0.154,0.487l16.442,5.24c0,0,0.321,0.131,0.321-0.272
		v-7.395C38.607,20.231,38.452,19.854,37.853,19.552z M35.92,22.046l-2.475,2.68c-0.604,0.636-1.165,0.273-1.165,0.273l-1.792-0.805
		c0,0-0.706-0.305-0.062-0.701l3.029-1.734c0,0,0.469-0.27,0.999-0.219h1.107C35.562,21.54,36.271,21.616,35.92,22.046z"/>
</g>
</svg>
